<?xml version="1.0" encoding="utf-8"?><svg viewBox="0 0 17 20" xmlns="http://www.w3.org/2000/svg" xmlns:xlink="http://www.w3.org/1999/xlink"><style>:root>svg{display:none}:root>svg:target{display:block}</style><svg viewBox="0 0 15 20" id="arrow-left-icon" xmlns="http://www.w3.org/2000/svg"><path d="M.407 9.22L11.77.32c.262-.207.613-.32.987-.32s.725.113.988.32l.837.655c.544.427.544 1.12 0 1.547L5.04 9.996l9.552 7.482c.263.206.408.48.408.773 0 .294-.145.568-.408.774l-.837.655c-.263.207-.613.32-.987.32s-.725-.113-.988-.32L.407 10.772C.144 10.566 0 10.29 0 9.996c0-.294.144-.57.407-.776z"/></svg><svg viewBox="0 0 15 20" id="arrow-right-icon" xmlns="http://www.w3.org/2000/svg"><path d="M14.593 9.22L3.23.32A1.602 1.602 0 002.243 0c-.374 0-.725.113-.988.32L.418.975c-.544.427-.544 1.12 0 1.547L9.96 9.996.408 17.478c-.263.206-.408.48-.408.773 0 .294.145.568.408.774l.837.655c.263.207.613.32.987.32s.725-.113.988-.32l11.373-8.908c.263-.206.408-.482.407-.776 0-.294-.144-.57-.407-.776z"/></svg><svg viewBox="0 0 12 9" id="next-icon" xmlns="http://www.w3.org/2000/svg"><path d="M7.886.5l-.668.65 2.973 2.89H0V5l10.191-.04-2.973 2.89.668.65L12 4.5 7.886.5z"/></svg><svg viewBox="0 0 17 17" id="phone-icon" xmlns="http://www.w3.org/2000/svg"><path d="M3.445 11.3A18.095 18.095 0 009.467 16c.88.415 2.058.908 3.37.993.08.004.159.007.24.007.88 0 1.588-.303 2.164-.926.003-.004.01-.011.014-.018.205-.247.438-.469.682-.705.167-.158.336-.324.499-.493.753-.782.753-1.775-.007-2.533l-2.125-2.116c-.36-.374-.792-.571-1.245-.571-.452 0-.887.197-1.259.567l-1.266 1.261c-.116-.067-.236-.127-.35-.183a4.35 4.35 0 01-.388-.211c-1.153-.73-2.2-1.68-3.2-2.903-.506-.638-.846-1.173-1.083-1.72.333-.299.644-.612.945-.919.106-.109.215-.218.325-.327.382-.38.587-.82.587-1.268 0-.448-.202-.888-.587-1.268l-1.054-1.05c-.124-.123-.24-.243-.36-.366-.234-.24-.478-.487-.718-.709C4.287.187 3.859 0 3.406 0c-.449 0-.88.187-1.259.546L.825 1.863c-.481.48-.753 1.06-.81 1.734-.067.841.089 1.736.492 2.818.618 1.673 1.552 3.226 2.938 4.885zM.878 3.67a1.86 1.86 0 01.562-1.197l1.315-1.31c.206-.198.432-.3.651-.3.216 0 .435.102.637.306.236.219.46.448.7.69.12.124.244.248.367.374l1.054 1.05c.22.218.332.44.332.659 0 .218-.113.44-.332.659l-.329.33c-.329.332-.636.645-.976.945l-.017.017c-.294.293-.248.57-.177.782l.01.028c.273.652.651 1.272 1.242 2.012 1.06 1.303 2.178 2.314 3.408 3.093.152.098.315.176.467.253.141.07.272.138.389.212.014.007.025.014.039.02.116.06.23.089.343.089.283 0 .467-.18.527-.24l1.322-1.317c.205-.204.428-.314.647-.314.269 0 .488.166.626.314l2.132 2.12c.424.423.421.881-.01 1.329-.149.158-.305.31-.47.468-.248.24-.506.486-.74.764-.406.437-.89.642-1.517.642-.06 0-.123-.004-.184-.008-1.16-.073-2.238-.524-3.047-.908a17.19 17.19 0 01-5.732-4.474C2.797 9.176 1.91 7.704 1.323 6.126.96 5.157.821 4.379.878 3.67z"/></svg><svg viewBox="0 0 17 17" id="sign-icon" xmlns="http://www.w3.org/2000/svg"><path d="M11.457 11.173a.274.274 0 00-.275.274v5.005H3.108v-2.285a.274.274 0 00-.275-.274H.548V.547h10.634v5.005a.274.274 0 10.549 0V.274A.274.274 0 0011.457 0H.274A.274.274 0 000 .274v13.893l.001.027.003.02.001.007a.278.278 0 00.006.022v.004a.258.258 0 00.009.022v.003a.267.267 0 00.01.02l.002.004a.255.255 0 00.011.018l.003.005.012.016.004.006a.278.278 0 00.018.02l2.56 2.559a.259.259 0 00.02.018l.005.004.016.012c.002 0 .003.002.005.003a.287.287 0 00.018.01l.004.003a.298.298 0 00.02.01h.003a.28.28 0 00.022.008h.004a.245.245 0 00.022.007h.007l.02.004.027.001h8.624a.274.274 0 00.274-.274v-5.279a.274.274 0 00-.274-.274zm-8.898 4.89L.936 14.442H2.56v1.623z"/><path d="M9.629 14.806a.274.274 0 100-.548H7.274a.274.274 0 100 .548H9.63zM9.629 2.56H2.102a.274.274 0 000 .548H9.63a.274.274 0 000-.549zM9.629 4.022H2.102a.274.274 0 000 .548H9.63a.274.274 0 000-.548zM9.629 5.484H2.102a.274.274 0 000 .548H9.63a.274.274 0 000-.548zM9.903 7.22a.274.274 0 00-.274-.274H2.102a.274.274 0 000 .549H9.63a.274.274 0 00.274-.275zM8.6 8.683a.274.274 0 00-.273-.274H2.102a.274.274 0 000 .548h6.225a.274.274 0 00.274-.274zM2.102 9.871a.274.274 0 000 .548h3.763a.274.274 0 000-.548H2.102zM16.631 3.326a1.253 1.253 0 00-.892-.37c-.337 0-.654.132-.892.37l-.853.853-.775.775-5.543 5.543a.263.263 0 00-.022.024l-.004.007a.257.257 0 00-.014.02l-.003.004-1.614 2.742a.454.454 0 00.028.615.454.454 0 00.615.03l2.743-1.616.003-.002a.261.261 0 00.02-.014l.007-.005a.274.274 0 00.025-.021l5.542-5.543.776-.776.853-.853a1.263 1.263 0 000-1.783zm-1.822 2.83L13.8 5.148l.388-.388 1.008 1.009-.387.387zM9.265 11.7l-1.009-1.008 5.156-5.155 1.008 1.008L9.266 11.7zm-1.584 1.002l-.426-.427.67-1.139.895.896-1.139.67zm-1.037.611l.323-.55.226.226-.55.324zm9.598-8.59l-.659.659-1.008-1.008.66-.66a.708.708 0 01.503-.208.708.708 0 01.713.712c0 .191-.074.37-.209.505z"/></svg></svg>