<svg width="15" height="20" viewBox="0 0 15 20" fill="none" xmlns="http://www.w3.org/2000/svg">
<path d="M0.407271 9.2196L11.7695 0.31951C12.0323 0.113495 12.3831 0 12.7571 0C13.1312 0 13.482 0.113495 13.7448 0.31951L14.5815 0.974789C15.126 1.40178 15.126 2.09576 14.5815 2.52209L5.04041 9.99585L14.5921 17.4779C14.8549 17.6839 15 17.9586 15 18.2514C15 18.5446 14.8549 18.8192 14.5921 19.0254L13.7554 19.6805C13.4924 19.8865 13.1418 20 12.7677 20C12.3937 20 12.0428 19.8865 11.7801 19.6805L0.407271 10.7723C0.143855 10.5656 -0.000826825 10.2897 3.48639e-06 9.99634C-0.000826825 9.70187 0.143855 9.4261 0.407271 9.2196Z" fill="#DAE4F9"/>
</svg>
