<svg width="15" height="20" viewBox="0 0 15 20" fill="none" xmlns="http://www.w3.org/2000/svg">
<path d="M14.5927 9.2196L3.23054 0.31951C2.96774 0.113495 2.61694 0 2.24288 0C1.86882 0 1.51802 0.113495 1.25522 0.31951L0.418477 0.974789C-0.126 1.40178 -0.126 2.09576 0.418477 2.52209L9.95959 9.99585L0.407891 17.4779C0.145097 17.6839 0 17.9586 0 18.2514C0 18.5446 0.145097 18.8192 0.407891 19.0254L1.24464 19.6805C1.50764 19.8865 1.85824 20 2.23229 20C2.60635 20 2.95716 19.8865 3.21995 19.6805L14.5927 10.7723C14.8561 10.5656 15.0008 10.2897 15 9.99634C15.0008 9.70187 14.8561 9.4261 14.5927 9.2196Z" fill="#DAE4F9"/>
</svg>
