<svg width="15" height="15" viewBox="0 0 15 15" fill="none" xmlns="http://www.w3.org/2000/svg">
<path d="M11.2316 8.79921C11.3335 8.61699 11.4263 8.42917 11.509 8.23572C11.8216 7.50421 11.9802 6.72775 11.9802 5.92795C11.9802 5.12815 11.8217 4.35172 11.509 3.62018C11.2072 2.91415 10.7755 2.28031 10.2257 1.73624C9.67594 1.19218 9.03544 0.764896 8.32204 0.466269C7.58286 0.156893 6.79827 0 5.99011 0C5.18196 0 4.39734 0.156893 3.65816 0.46632C2.94473 0.764947 2.30426 1.19223 1.75449 1.7363C1.20474 2.28036 0.772962 2.9142 0.471206 3.62023C0.158537 4.35177 0 5.1282 0 5.92797C0 6.72775 0.158512 7.50421 0.47118 8.23574C0.772936 8.9418 1.20469 9.57561 1.75446 10.1197C2.30423 10.6637 2.94471 11.091 3.65814 11.3897C4.39734 11.6991 5.18193 11.856 5.99009 11.856C6.79825 11.856 7.58284 11.6991 8.32204 11.3897C8.44592 11.3378 8.56741 11.2818 8.68678 11.2223L12.043 14.5437C12.3404 14.838 12.7356 15 13.1561 15C13.5766 15 13.9719 14.838 14.2692 14.5437L14.5397 14.276C15.1534 13.6687 15.1534 12.6804 14.5397 12.073L11.2316 8.79921ZM8.85511 9.85304C8.54812 10.0729 8.21435 10.2583 7.85952 10.4036C7.28351 10.6395 6.65224 10.77 5.99009 10.77C3.28791 10.77 1.09739 8.60213 1.09739 5.92797C1.09739 3.25382 3.28791 1.08601 5.99009 1.08601C8.69226 1.08601 10.8828 3.25384 10.8828 5.92797C10.8828 6.66656 10.7154 7.36635 10.4166 7.99268C10.2549 8.33169 10.0546 8.64913 9.82131 8.93942C9.54297 9.2857 9.21778 9.59333 8.85511 9.85304ZM13.7637 13.5081L13.4932 13.7758C13.4001 13.868 13.2781 13.914 13.1561 13.914C13.0341 13.914 12.9121 13.868 12.819 13.7758L9.63941 10.6292C9.84462 10.4728 10.0404 10.3031 10.2257 10.1197C10.358 9.98882 10.4832 9.85264 10.6016 9.71161L13.7637 12.841C13.9499 13.0252 13.9499 13.3239 13.7637 13.5081Z" fill="#DAE4F9"/>
</svg>
