<svg width="17" height="17" viewBox="0 0 17 17" fill="none" xmlns="http://www.w3.org/2000/svg">
<path d="M11.4566 11.1728C11.3052 11.1728 11.1825 11.2956 11.1825 11.447V16.4516H3.10753V14.1667C3.10753 14.0152 2.98476 13.8925 2.83333 13.8925H0.548387V0.548387H11.1825V5.55297C11.1825 5.7044 11.3052 5.82716 11.4566 5.82716C11.6081 5.82716 11.7308 5.7044 11.7308 5.55297V0.274194C11.7308 0.122766 11.6081 0 11.4566 0H0.274194C0.122766 0 0 0.122766 0 0.274194V14.1667C0 14.1758 0.000475269 14.185 0.00138925 14.194C0.00204731 14.2007 0.00318065 14.2072 0.00431398 14.2137C0.00471613 14.216 0.00493548 14.2184 0.00537419 14.2207C0.00690968 14.2283 0.00888387 14.2359 0.0110409 14.2433C0.0113699 14.2444 0.0115527 14.2455 0.0118817 14.2466C0.0141849 14.2542 0.0169269 14.2616 0.0198516 14.2688C0.0202538 14.2698 0.0205462 14.2709 0.0209484 14.2718C0.0238 14.2787 0.0270903 14.2854 0.0304903 14.292C0.031185 14.2934 0.0317333 14.2948 0.0324645 14.2961C0.0357183 14.3022 0.0393742 14.3081 0.0431032 14.3139C0.0442 14.3156 0.0451871 14.3174 0.0463204 14.3192C0.0500129 14.3247 0.0541075 14.3299 0.0581656 14.3352C0.0595914 14.337 0.0608344 14.3389 0.0622968 14.3407C0.068 14.3476 0.0739957 14.3543 0.0803204 14.3606L2.63935 16.9196C2.64568 16.926 2.65233 16.932 2.65928 16.9377C2.66107 16.9392 2.663 16.9404 2.6648 16.9418C2.67002 16.9459 2.67529 16.95 2.68081 16.9537C2.68253 16.9548 2.68436 16.9558 2.68611 16.9569C2.69192 16.9606 2.69777 16.9642 2.70388 16.9675C2.70519 16.9683 2.70662 16.9688 2.70797 16.9695C2.71459 16.9729 2.72128 16.9762 2.72815 16.9791C2.72914 16.9795 2.73016 16.9797 2.73111 16.9801C2.73839 16.983 2.74577 16.9858 2.75334 16.9881C2.75444 16.9884 2.75557 16.9886 2.75667 16.9889C2.76409 16.9911 2.77162 16.9931 2.7793 16.9946C2.7816 16.9951 2.78398 16.9953 2.78628 16.9957C2.79279 16.9968 2.79926 16.998 2.80591 16.9986C2.81498 16.9995 2.82412 17 2.8333 17H11.4566C11.608 17 11.7308 16.8772 11.7308 16.7258V11.447C11.7308 11.2956 11.6081 11.1728 11.4566 11.1728ZM2.55914 16.0639L0.936133 14.4409H2.55914V16.0639Z" fill="#FEFEFE"/>
<path d="M9.62888 14.8064C9.78031 14.8064 9.90308 14.6837 9.90308 14.5323C9.90308 14.3808 9.78031 14.2581 9.62888 14.2581H7.27444C7.12301 14.2581 7.00024 14.3808 7.00024 14.5323C7.00024 14.6837 7.12301 14.8064 7.27444 14.8064H9.62888Z" fill="#FEFEFE"/>
<path d="M9.6286 2.55914H2.10207C1.95065 2.55914 1.82788 2.68191 1.82788 2.83334C1.82788 2.98476 1.95065 3.10753 2.10207 3.10753H9.6286C9.78003 3.10753 9.90279 2.98476 9.90279 2.83334C9.90279 2.68191 9.78003 2.55914 9.6286 2.55914Z" fill="#FEFEFE"/>
<path d="M9.6286 4.02151H2.10207C1.95065 4.02151 1.82788 4.14428 1.82788 4.2957C1.82788 4.44713 1.95065 4.56989 2.10207 4.56989H9.6286C9.78003 4.56989 9.90279 4.44713 9.90279 4.2957C9.90279 4.14428 9.78003 4.02151 9.6286 4.02151Z" fill="#FEFEFE"/>
<path d="M9.6286 5.48386H2.10207C1.95065 5.48386 1.82788 5.60662 1.82788 5.75805C1.82788 5.90948 1.95065 6.03224 2.10207 6.03224H9.6286C9.78003 6.03224 9.90279 5.90948 9.90279 5.75805C9.90279 5.60662 9.78003 5.48386 9.6286 5.48386Z" fill="#FEFEFE"/>
<path d="M9.90279 7.22042C9.90279 7.06899 9.78003 6.94623 9.6286 6.94623H2.10207C1.95065 6.94623 1.82788 7.06899 1.82788 7.22042C1.82788 7.37185 1.95065 7.49462 2.10207 7.49462H9.6286C9.78003 7.49462 9.90279 7.37185 9.90279 7.22042Z" fill="#FEFEFE"/>
<path d="M8.6009 8.6828C8.6009 8.53137 8.47814 8.4086 8.32671 8.4086H2.10207C1.95065 8.4086 1.82788 8.53137 1.82788 8.6828C1.82788 8.83423 1.95065 8.957 2.10207 8.957H8.32674C8.47817 8.957 8.6009 8.83423 8.6009 8.6828Z" fill="#FEFEFE"/>
<path d="M2.10207 9.87097C1.95065 9.87097 1.82788 9.99374 1.82788 10.1452C1.82788 10.2966 1.95065 10.4194 2.10207 10.4194H5.86536C6.01679 10.4194 6.13956 10.2966 6.13956 10.1452C6.13956 9.99374 6.01679 9.87097 5.86536 9.87097H2.10207Z" fill="#FEFEFE"/>
<path d="M16.631 3.32566C16.3931 3.08773 16.0764 2.95667 15.7391 2.95667C15.4019 2.95667 15.0852 3.08769 14.8473 3.32562L13.9942 4.17873H13.9942H13.9941L13.2187 4.95418H13.2187C13.2186 4.95422 13.2186 4.95422 13.2186 4.95422L7.67577 10.4972C7.66806 10.5048 7.66108 10.513 7.6545 10.5213C7.65281 10.5235 7.65128 10.5258 7.64963 10.528C7.6447 10.5346 7.64006 10.5414 7.63581 10.5484C7.63505 10.5496 7.63413 10.5507 7.6334 10.5519L6.01858 13.2945C5.9504 13.3764 5.91333 13.4785 5.91333 13.5864C5.91333 13.7085 5.96086 13.8232 6.04717 13.9095C6.13349 13.9958 6.24825 14.0434 6.37032 14.0434C6.47817 14.0434 6.58032 14.0063 6.66217 13.9381L9.40476 12.3233C9.40604 12.3225 9.40714 12.3216 9.40842 12.3208C9.41537 12.3166 9.42209 12.312 9.42871 12.3071C9.43094 12.3055 9.43321 12.3039 9.4354 12.3022C9.44374 12.2956 9.45185 12.2886 9.45953 12.2809L15.0023 6.73805C15.0023 6.73805 15.0024 6.73805 15.0024 6.73801C15.0024 6.73798 15.0024 6.73798 15.0024 6.73798L15.7779 5.96248H15.7779H15.778L16.631 5.10941C17.1228 4.61762 17.1228 3.81741 16.631 3.32566ZM14.8085 6.15636L13.8003 5.14813L14.1881 4.76038L15.1963 5.76857L14.8085 6.15636ZM9.26562 11.6992L8.25743 10.691L13.4126 5.53591L14.4208 6.5441L9.26562 11.6992ZM7.68232 12.7011L7.25564 12.2744L7.92624 11.1354L8.82128 12.0305L7.68232 12.7011ZM6.6447 13.312L6.96824 12.7625L7.19422 12.9885L6.6447 13.312ZM16.2433 4.72159L15.5841 5.38079L14.5758 4.3726L15.2351 3.71337C15.3694 3.57901 15.5485 3.50502 15.7392 3.50502C15.9299 3.50502 16.1089 3.57901 16.2433 3.71337C16.3777 3.84772 16.4516 4.02675 16.4516 4.21748C16.4516 4.40821 16.3776 4.58728 16.2433 4.72159Z" fill="#FEFEFE"/>
</svg>
