<svg width="15" height="15" viewBox="0 0 15 15" fill="none" xmlns="http://www.w3.org/2000/svg">
<path d="M8.82658 7.49984L14.7251 1.60128C15.0916 1.23512 15.0916 0.641012 14.7251 0.274854C14.3587 -0.0916178 13.7652 -0.0916178 13.3987 0.274854L7.50016 6.17342L1.60128 0.274854C1.23481 -0.0916178 0.641325 -0.0916178 0.274854 0.274854C-0.0916178 0.641012 -0.0916178 1.23512 0.274854 1.60128L6.17373 7.49984L0.274854 13.3984C-0.0916178 13.7646 -0.0916178 14.3587 0.274854 14.7248C0.458089 14.9078 0.698234 14.9994 0.938067 14.9994C1.1779 14.9994 1.41804 14.9078 1.60128 14.7245L7.50016 8.82596L13.3987 14.7245C13.582 14.9078 13.8221 14.9994 14.0619 14.9994C14.3018 14.9994 14.5419 14.9078 14.7251 14.7245C15.0916 14.3584 15.0916 13.7643 14.7251 13.3981L8.82658 7.49984Z" fill="#306CE1"/>
</svg>
