<?xml version="1.0" standalone="no"?>
<!DOCTYPE svg PUBLIC "-//W3C//DTD SVG 20010904//EN"
 "http://www.w3.org/TR/2001/REC-SVG-20010904/DTD/svg10.dtd">
<svg version="1.0" xmlns="http://www.w3.org/2000/svg"
 width="512.000000pt" height="512.000000pt" viewBox="0 0 512.000000 512.000000"
 preserveAspectRatio="xMidYMid meet">
<metadata>
Created by potrace 1.14, written by Peter Selinger 2001-2017
</metadata>
<g transform="translate(0.000000,512.000000) scale(0.100000,-0.100000)"
fill="#000000" stroke="none">
<path d="M629 5103 c-2 -33 2 -78 11 -113 5 -19 11 -61 15 -93 3 -32 8 -64 10
-70 4 -10 41 -257 50 -322 1 -11 5 -33 8 -50 7 -32 17 -93 22 -135 2 -14 7
-47 11 -74 l7 -48 -43 27 c-24 15 -102 66 -174 113 -72 47 -140 86 -150 86
-34 2 -28 -24 16 -66 23 -23 95 -92 160 -154 l116 -113 -36 -14 c-21 -8 -174
-59 -341 -113 -167 -54 -306 -105 -308 -112 -11 -28 13 -34 93 -22 44 6 95 14
114 16 19 3 46 7 60 9 42 8 83 14 130 19 25 3 56 8 70 11 14 3 48 7 75 10 28
3 57 7 65 10 8 3 39 7 69 10 l55 5 -43 -41 c-53 -52 -86 -117 -102 -200 -14
-78 -20 -395 -7 -476 4 -32 10 -73 13 -90 20 -134 70 -284 180 -534 99 -224
155 -395 155 -471 0 -9 -53 -70 -117 -136 -65 -65 -154 -158 -198 -206 -44
-49 -85 -94 -90 -100 -6 -6 -22 -25 -35 -42 -14 -17 -50 -62 -81 -100 -30 -38
-77 -100 -104 -139 -27 -38 -52 -72 -55 -75 -8 -8 -73 -117 -114 -193 -142
-259 -166 -488 -66 -625 88 -122 251 -179 510 -179 74 0 162 3 195 7 33 5 83
11 110 15 28 3 95 15 150 26 55 12 109 22 119 25 10 2 55 13 98 24 44 11 84
22 90 23 5 1 29 -29 52 -67 123 -199 225 -271 322 -226 99 45 233 270 258 435
10 65 13 69 82 99 36 16 76 42 89 58 41 49 17 70 -103 94 l-31 6 4 66 c4 70
13 241 20 391 8 166 26 261 51 261 50 0 122 -74 172 -175 36 -72 77 -193 87
-255 4 -25 9 -54 11 -65 6 -30 13 -158 19 -350 3 -93 7 -188 10 -210 13 -111
17 -135 32 -195 23 -93 54 -159 97 -205 20 -22 45 -50 56 -62 28 -31 84 -40
126 -20 184 88 386 527 479 1042 8 44 17 89 19 101 2 12 7 45 11 75 4 30 8 55
8 55 1 1 40 23 87 49 109 61 336 211 470 310 99 73 279 213 290 225 3 3 34 29
70 59 330 272 660 611 803 823 127 190 181 337 182 493 0 89 -3 107 -28 160
-94 203 -350 300 -787 300 -133 -1 -284 -9 -342 -20 -9 -2 -38 -6 -65 -10 -26
-4 -86 -13 -131 -22 -46 -8 -85 -13 -86 -11 -2 2 -10 40 -18 85 -49 253 -224
396 -488 397 -163 1 -237 -14 -507 -103 -101 -33 -224 -72 -275 -86 -51 -15
-159 -48 -240 -75 l-147 -49 -143 35 c-79 20 -150 37 -158 39 -8 2 -33 8 -55
13 -22 6 -51 13 -65 16 -14 2 -87 20 -162 39 -131 34 -211 49 -270 51 -15 1
-24 4 -20 7 7 6 233 87 262 94 28 7 345 116 383 132 48 21 52 61 5 54 -4 0
-28 -3 -53 -6 -78 -9 -129 -15 -160 -19 -65 -9 -283 -37 -325 -42 -25 -2 -54
-7 -65 -9 -32 -6 -125 -16 -125 -13 0 3 33 90 99 262 40 105 43 134 10 121 -8
-3 -61 -82 -119 -175 -57 -94 -107 -167 -111 -163 -4 5 -16 40 -27 78 -36 124
-72 248 -102 345 -16 52 -47 158 -70 235 -24 77 -49 157 -57 178 -16 38 -42
50 -44 20z m3666 -1716 c11 -3 43 -8 70 -11 114 -16 241 -72 297 -132 128
-139 49 -402 -249 -824 -10 -14 -59 -79 -110 -144 -51 -66 -93 -128 -93 -137
0 -10 -4 -19 -9 -21 -5 -1 -35 -27 -67 -57 -96 -89 -327 -270 -509 -399 -93
-67 -175 -126 -182 -132 -7 -5 -14 -10 -16 -10 -2 0 -48 -29 -101 -65 -108
-73 -103 -75 -86 45 8 63 14 119 25 238 3 31 8 76 10 100 3 23 7 62 10 87 3
25 7 65 10 90 12 110 17 145 27 215 6 41 12 84 13 95 19 131 63 283 198 680
35 105 75 231 87 280 13 50 24 91 25 92 1 2 48 5 106 9 57 3 105 7 107 9 5 4
416 -3 437 -8z m-3326 -1707 c56 -307 153 -664 251 -925 27 -71 47 -131 45
-133 -5 -6 -93 -25 -185 -42 -367 -65 -599 8 -691 216 -31 70 -31 219 -1 329
30 105 104 255 190 385 76 114 127 176 291 359 l76 84 6 -104 c3 -57 11 -133
18 -169z"/>
</g>
</svg>
